#!OML:ASF F:\VICON\USERDATA\INSTALL\rory3\rory3.ASF
:FULLY-SPECIFIED
:DEGREES
1385
root -10.0404 17.9328 -0.0219434 363.102 -7.86332 -0.765124
lowerback 11.3493 6.60836 6.87205
upperback 1.52289 9.52296 -1.68694
thorax -3.28978 4.65297 -6.81078
lowerneck -16.8543 13.0029 -4.35371
upperneck 45.6966 22.6649 2.15437
head 19.8251 8.44968 6.35932
rclavicle 9.49197e-014 -9.14409e-015
rhumerus -36.0132 -14.762 -78.2567
rradius 37.1241
rwrist 3.3694
rhand -15.019 6.28514
rfingers 7.12502
rthumb 11.1465 -23.3988
lclavicle 9.49197e-014 -9.14409e-015
lhumerus -35.2477 8.881 79.4761
lradius 40.5876
lwrist -4.99535
lhand -18.0577 29.7494
lfingers 7.12502
lthumb 8.21462 59.5697
rfemur 6.99912 -3.10926 22.9184
rtibia 23.5104
rfoot -10.7516 -5.98163
rtoes -11.2875
lfemur -24.6214 -10.1988 -19.559
ltibia 24.3722
lfoot 3.15415 -9.94408
ltoes -7.09496
1386
root -9.99607 17.9355 -0.158241 363.339 -8.31815 -1.0573
lowerback 11.422 6.60567 7.11445
upperback 1.56923 9.55922 -1.48103
thorax -3.27147 4.6692 -6.73626
lowerneck -16.8152 13.0528 -4.34135
upperneck 45.7585 22.8371 1.96
head 19.9018 8.47873 6.31003
rclavicle 4.77083e-014 1.47101e-014
rhumerus -35.2917 -14.4911 -78.0642
rradius 37.3444
rwrist 3.49441
rhand -14.8614 6.01699
rfingers 7.12502
rthumb 11.2984 -23.6587
lclavicle 4.77083e-014 1.47101e-014
lhumerus -35.2951 9.25008 79.9644
lradius 40.2286
lwrist -4.57691
lhand -19.3056 30.0057
lfingers 7.12502
lthumb 7.01017 59.8697
rfemur 6.62618 -2.92088 23.1125
rtibia 22.9095
rfoot -11.2255 -5.85853
rtoes -11.0484
lfemur -25.1614 -10.4399 -18.9286
ltibia 24.0318
lfoot 4.01113 -9.59059
ltoes -6.38409
1387
root -9.95539 17.94 -0.291955 363.533 -8.83886 -1.35092
lowerback 11.4923 6.59998 7.31559
upperback 1.65921 9.58417 -1.28369
thorax -3.21265 4.68373 -6.64308
lowerneck -16.9129 13.0722 -4.41962
upperneck 45.8388 22.9622 1.85785
head 19.992 8.47915 6.32044
rclavicle -1.43324e-013 1.78906e-014
rhumerus -34.4803 -14.2388 -77.957
rradius 37.4631
rwrist 3.34349
rhand -14.991 6.02712
rfingers 7.12502
rthumb 11.1734 -23.6554
lclavicle -1.43324e-013 1.78906e-014
lhumerus -35.4527 9.7091 80.3434
lradius 39.9643
lwrist -4.21775
lhand -20.5493 29.8419
lfingers 7.12502
lthumb 5.8095 59.7422
rfemur 6.20092 -2.58483 23.3303
rtibia 22.4951
rfoot -11.8611 -6.07665
rtoes -11.7579
lfemur -25.585 -10.5374 -18.3293
ltibia 23.6115
lfoot 4.82687 -9.29997
ltoes -5.82052
1388
root -9.91205 17.9515 -0.414462 363.636 -9.44935 -1.45259
lowerback 11.5703 6.63988 7.37262
upperback 1.74422 9.64879 -1.18589
thorax -3.16302 4.71938 -6.5812
lowerneck -17.0475 13.0464 -4.53748
upperneck 45.9339 22.9724 1.88283
head 20.0679 8.44617 6.37477
rclavicle 1.0307e-013 -4.77083e-015
rhumerus -33.8111 -13.978 -77.9986
rradius 37.4981
rwrist 2.21644
rhand -15.7787 6.88638
rfingers 7.12502
rthumb 10.4137 -22.8357
lclavicle 1.0307e-013 -4.77083e-015
lhumerus -35.7626 10.0949 80.5661
lradius 39.8775
lwrist -4.33687
lhand -21.2194 28.9428
lfingers 7.12502
lthumb 5.16246 58.8599
rfemur 5.78173 -2.43034 23.242
rtibia 22.233
rfoot -12.252 -5.95479
rtoes -12.2259
lfemur -25.838 -10.5761 -18.019
ltibia 23.1522
lfoot 5.50722 -9.01104
ltoes -5.61921
1389
root -9.86719 17.9655 -0.534935 363.741 -9.96844 -1.4391
lowerback 11.6474 6.66566 7.35251
upperback 1.79 9.68455 -1.15008
thorax -3.16074 4.73808 -6.54355
lowerneck -17.16 13.0195 -4.624
upperneck 46.044 22.9327 1.98345
head 20.1356 8.41117 6.44779
rclavicle -9.31306e-014 -1.27222e-014
rhumerus -33.2499 -14.0906 -77.8056
rradius 37.8294
rwrist 2.833
rhand -15.0978 6.271
rfingers 7.12502
rthumb 11.0704 -23.417
lclavicle -9.31306e-014 -1.27222e-014
lhumerus -36.0071 10.4089 80.7647
lradius 39.7022
lwrist -4.53608
lhand -21.5635 28.3645
lfingers 7.12502
lthumb 4.83025 58.2895
rfemur 5.24692 -2.27817 23.0662
rtibia 22.1182
rfoot -12.3429 -5.69993
rtoes -12.1504
lfemur -26.08 -10.7132 -17.8218
ltibia 22.6391
lfoot 6.30333 -8.59616
ltoes -4.84136
1390
root -9.82434 17.9818 -0.659303 363.794 -10.3569 -1.4475
lowerback 11.7547 6.61021 7.34148
upperback 1.91966 9.61281 -1.09335
thorax -3.10545 4.7083 -6.47633
lowerneck -17.2868 13.0403 -4.68983
upperneck 46.0524 22.9603 2.02586
head 20.1515 8.40628 6.49324
rclavicle -2.03754e-014 2.22639e-014
rhumerus -32.4795 -13.9778 -77.8416
rradius 37.8954
rwrist 2.13598
rhand -15.5122 7.04656
rfingers 7.12502
rthumb 10.6707 -22.6625
lclavicle -2.03754e-014 2.22639e-014
lhumerus -36.0735 11.0899 80.8053
lradius 39.4088
lwrist -5.37304
lhand -20.611 29.1694
lfingers 7.12502
lthumb 5.74995 59.0714
rfemur 4.67392 -2.12441 22.9811
rtibia 22.1282
rfoot -12.3383 -5.55977
rtoes -12.3282
lfemur -26.2737 -10.8006 -17.6118
ltibia 22.0952
lfoot 7.19534 -8.13924
ltoes -3.72901
1391
root -9.78466 17.9977 -0.782171 363.764 -10.7699 -1.38291
lowerback 12.0071 6.56454 7.18553
upperback 1.97221 9.54927 -1.04504
thorax -3.23197 4.67149 -6.36958
lowerneck -17.2605 13.0656 -4.6998
upperneck 45.9923 22.9681 2.01374
head 20.1027 8.41212 6.47728
rclavicle -3.04141e-014 -1.35174e-014
rhumerus -31.9872 -14.0126 -77.7911
rradius 38.2703
rwrist 2.20405
rhand -15.3874 6.97924
rfingers 7.12502
rthumb 10.7911 -22.7236
lclavicle -3.04141e-014 -1.35174e-014
lhumerus -36.4503 11.6403 80.7872
lradius 39.2075
lwrist -6.10733
lhand -20.1805 29.1908
lfingers 7.12502
lthumb 6.16559 59.0811
rfemur 4.15362 -1.95864 22.8266
rtibia 22.2417
rfoot -12.4075 -5.47017
rtoes -12.567
lfemur -26.3633 -10.7134 -17.5495
ltibia 21.5892
lfoot 7.93238 -7.9148
ltoes -3.07459
1392
root -9.74451 18.0145 -0.896552 363.696 -11.2329 -1.27257
lowerback 12.19 6.5593 6.95727
upperback 2.01492 9.52484 -1.00219
thorax -3.33537 4.65605 -6.2238
lowerneck -17.2663 13.0632 -4.69912
upperneck 46.0128 22.9255 2.06022
head 20.108 8.39765 6.49146
rclavicle -6.0033e-014 2.46493e-014
rhumerus -31.6887 -13.9748 -77.7437
rradius 38.6509
rwrist 1.80781
rhand -15.8103 7.22552
rfingers 7.12502
rthumb 10.3832 -22.4981
lclavicle -6.0033e-014 2.46493e-014
lhumerus -36.9295 11.759 80.9243
lradius 38.9657
lwrist -5.82493
lhand -20.6139 29.0343
lfingers 7.12502
lthumb 5.7471 58.9364
rfemur 3.64656 -1.74786 22.6067
rtibia 22.4479
rfoot -12.4662 -5.39164
rtoes -12.6552
lfemur -26.3442 -10.5621 -17.6021
ltibia 21.1725
lfoot 8.3789 -8.04295
ltoes -3.36013
1393
root -9.70192 18.0336 -1.00486 363.62 -11.6659 -1.25395
lowerback 12.2852 6.53309 6.88264
upperback 2.10539 9.48396 -0.959366
thorax -3.31737 4.63903 -6.14108
lowerneck -17.2413 13.0756 -4.65465
upperneck 46.0475 22.883 2.11806
head 20.1187 8.39148 6.50335
rclavicle 2.16675e-014 0
rhumerus -31.2776 -13.9232 -77.7717
rradius 38.9579
rwrist 1.30331
rhand -16.5265 7.25073
rfingers 7.12502
rthumb 9.69219 -22.5063
lclavicle 2.16675e-014 0
lhumerus -37.2664 11.5803 81.2151
lradius 38.701
lwrist -4.7734
lhand -21.3569 28.5953
lfingers 7.12502
lthumb 5.02973 58.5156
rfemur 3.13164 -1.5669 22.4615
rtibia 22.7221
rfoot -12.4468 -5.20768
rtoes -12.1503
lfemur -26.3051 -10.4666 -17.5762
ltibia 20.9004
lfoot 8.5691 -8.26131
ltoes -4.5069
1394
root -9.65865 18.0528 -1.11162 363.527 -11.9989 -1.23394
lowerback 12.4411 6.47937 6.83974
upperback 2.14492 9.41618 -0.939899
thorax -3.38101 4.60282 -6.11017
lowerneck -17.1069 13.0897 -4.4996
upperneck 45.996 22.8062 2.10232
head 20.0802 8.39366 6.44079
rclavicle -1.38155e-014 -1.43125e-014
rhumerus -30.9985 -13.9112 -77.8013
rradius 39.3815
rwrist 0.964651
rhand -16.7628 7.0533
rfingers 7.12502
rthumb 9.46419 -22.7142
lclavicle -1.38155e-014 -1.43125e-014
lhumerus -37.722 11.2527 81.4767
lradius 38.7387
lwrist -4.07763
lhand -20.9042 28.1143
lfingers 7.12502
lthumb 5.46688 58.0237
rfemur 2.61978 -1.42658 22.3185
rtibia 23.0459
rfoot -12.3764 -5.05605
rtoes -11.4772
lfemur -26.3255 -10.4809 -17.5358
ltibia 20.8657
lfoot 8.40774 -8.67213
ltoes -5.91689
1395
root -9.61384 18.0686 -1.21534 363.393 -12.2976 -1.17329
lowerback 12.5445 6.37691 6.77596
upperback 2.29215 9.27306 -0.909937
thorax -3.3179 4.53879 -6.03171
lowerneck -17.3046 13.0884 -4.59274
upperneck 45.9482 22.7692 2.20765
head 20.0587 8.37241 6.50548
rclavicle 4.4329e-014 -2.0276e-014
rhumerus -30.6425 -13.8145 -77.8867
rradius 39.9072
rwrist 0.687772
rhand -16.7713 6.89508
rfingers 7.12502
rthumb 9.45601 -22.8728
lclavicle 4.4329e-014 -2.0276e-014
lhumerus -38.1005 11.2839 81.5902
lradius 38.8174
lwrist -4.4249
lhand -18.4806 29.2524
lfingers 7.12502
lthumb 7.80646 59.0883
rfemur 2.13408 -1.2113 22.1451
rtibia 23.4212
rfoot -12.3247 -4.99083
rtoes -11.4873
lfemur -26.3453 -10.6611 -17.5065
ltibia 21.108
lfoot 7.75978 -9.02302
ltoes -7.49567
